HIERARCHY
ROOT Hips
{
	OFFSET 0.00000 0.00000 0.00000
	CHANNELS 6 Xposition Yposition Zposition Zrotation Yrotation Xrotation 
	JOINT LHipJoint
	{
		OFFSET 0 0 0
		CHANNELS 3 Zrotation Yrotation Xrotation
		JOINT LeftUpLeg
		{
			OFFSET 1.46561 -1.72757 0.83774
			CHANNELS 3 Zrotation Yrotation Xrotation
			JOINT LeftLeg
			{
				OFFSET 2.48915 -6.83890 0.00000
				CHANNELS 3 Zrotation Yrotation Xrotation
				JOINT LeftFoot
				{
					OFFSET 2.60555 -7.15868 0.00000
					CHANNELS 3 Zrotation Yrotation Xrotation
					JOINT LeftToeBase
					{
						OFFSET 0.19248 -0.52884 2.26738
						CHANNELS 3 Zrotation Yrotation Xrotation
						End Site
						{
							OFFSET 0.00000 -0.00000 1.17015
						}
					}
				}
			}
		}
	}
	JOINT RHipJoint
	{
		OFFSET 0 0 0
		CHANNELS 3 Zrotation Yrotation Xrotation
		JOINT RightUpLeg
		{
			OFFSET -1.46918 -1.72757 0.83774
			CHANNELS 3 Zrotation Yrotation Xrotation
			JOINT RightLeg
			{
				OFFSET -2.49034 -6.84216 0.00000
				CHANNELS 3 Zrotation Yrotation Xrotation
				JOINT RightFoot
				{
					OFFSET -2.65971 -7.30750 0.00000
					CHANNELS 3 Zrotation Yrotation Xrotation
					JOINT RightToeBase
					{
						OFFSET -0.19227 -0.52827 2.30785
						CHANNELS 3 Zrotation Yrotation Xrotation
						End Site
						{
							OFFSET -0.00000 -0.00000 1.18972
						}
					}
				}
			}
		}
	}
	JOINT LowerBack
	{
		OFFSET 0 0 0
		CHANNELS 3 Zrotation Yrotation Xrotation
		JOINT Spine
		{
			OFFSET 0.02432 2.19909 -0.28000
			CHANNELS 3 Zrotation Yrotation Xrotation
			JOINT Spine1
			{
				OFFSET 0.03714 2.21816 -0.15261
				CHANNELS 3 Zrotation Yrotation Xrotation
				JOINT Neck
				{
					OFFSET 0 0 0
					CHANNELS 3 Zrotation Yrotation Xrotation
					JOINT Neck1
					{
						OFFSET -0.01896 1.56165 0.21681
						CHANNELS 3 Zrotation Yrotation Xrotation
						JOINT Head
						{
							OFFSET 0.02744 1.56009 0.06764
							CHANNELS 3 Zrotation Yrotation Xrotation
							End Site
							{
								OFFSET 0.01212 1.60574 0.00298
							}
						}
					}
				}
				JOINT LeftShoulder
				{
					OFFSET 0 0 0
					CHANNELS 3 Zrotation Yrotation Xrotation
					JOINT LeftArm
					{
						OFFSET 3.05595 1.48048 -0.60794
						CHANNELS 3 Zrotation Yrotation Xrotation
						JOINT LeftForeArm
						{
							OFFSET 5.20607 -0.00000 -0.00000
							CHANNELS 3 Zrotation Yrotation Xrotation
							JOINT LeftHand
							{
								OFFSET 3.39961 -0.00000 0.00000
								CHANNELS 3 Zrotation Yrotation Xrotation
								JOINT LeftFingerBase
								{
									OFFSET 0 0 0
									CHANNELS 3 Zrotation Yrotation Xrotation
									JOINT LeftHandIndex1
									{
										OFFSET 0.51969 -0.00000 0.00000
										CHANNELS 3 Zrotation Yrotation Xrotation
										End Site
										{
											OFFSET 0.41899 -0.00000 0.00000
										}
									}
								}
								JOINT LThumb
								{
									OFFSET 0 0 0
									CHANNELS 3 Zrotation Yrotation Xrotation
									End Site
									{
										OFFSET 0.42539 -0.00000 0.42539
									}
								}
							}
						}
					}
				}
				JOINT RightShoulder
				{
					OFFSET 0 0 0
					CHANNELS 3 Zrotation Yrotation Xrotation
					JOINT RightArm
					{
						OFFSET -2.99052 1.57608 -0.69102
						CHANNELS 3 Zrotation Yrotation Xrotation
						JOINT RightForeArm
						{
							OFFSET -5.32214 -0.00000 0.00000
							CHANNELS 3 Zrotation Yrotation Xrotation
							JOINT RightHand
							{
								OFFSET -3.51208 -0.00000 0.00000
								CHANNELS 3 Zrotation Yrotation Xrotation
								JOINT RightFingerBase
								{
									OFFSET 0 0 0
									CHANNELS 3 Zrotation Yrotation Xrotation
									JOINT RightHandIndex1
									{
										OFFSET -0.58668 -0.00000 0.00000
										CHANNELS 3 Zrotation Yrotation Xrotation
										End Site
										{
											OFFSET -0.47300 -0.00000 0.00000
										}
									}
								}
								JOINT RThumb
								{
									OFFSET 0 0 0
									CHANNELS 3 Zrotation Yrotation Xrotation
									End Site
									{
										OFFSET -0.48022 -0.00000 0.48022
									}
								}
							}
						}
					}
				}
			}
		}
	}
}
MOTION
Frames: 16
Frame Time: .0083333
1.2723 20.6595 3.8699 0.1740 0.2244 1.9635 0.0000 0.0000 0.0000 -19.4400 1.1953 -30.9944 1.4526 7.6184 21.5608 0.5753 0.4056 14.1970 0.2904 -3.4655 -9.5775 0.0000 0.0000 0.0000 15.7731 6.6276 -27.3802 -1.4539 -7.6215 21.5702 -0.1613 -5.5795 7.6077 -0.1461 -2.4630 6.7871 0.9254 0.1415 5.1588 2.5718 0.2260 3.3975 2.1126 0.1025 0.5941 -2.4849 -0.1401 -7.3285 -1.0764 0.5659 28.7638 0.1110 -0.1121 10.3769 -0.0000 -0.0000 0.0000 -82.2597 -0.2110 31.0927 12.9102 -21.1556 -2.4208 -0.0000 0.0000 -19.3756 23.5027 -8.1872 -3.5437 -7.1250 0.0000 -0.0000 -2.4263 21.0668 1.3932 -0.0000 -0.0000 0.0000 88.2097 5.7305 3.1799 -11.6452 19.2704 -1.9836 0.0000 0.0000 40.3453 -24.1731 -22.0262 9.5552 7.1250 -0.0000 -0.0000 4.9258 -53.8274 -1.0710
1.2896 20.4292 4.1686 0.3555 0.1718 1.4948 0.0000 0.0000 0.0000 -19.8604 1.7842 -30.3054 1.2337 7.0436 19.8447 0.6238 0.2217 14.8499 0.3070 -3.5623 -9.8484 0.0000 0.0000 0.0000 15.3448 6.9108 -27.1300 -1.3691 -7.4054 20.9221 -0.1941 -5.6324 8.2119 -0.1597 -2.5748 7.0972 0.9410 0.0932 4.7473 2.5777 0.1531 3.3498 2.1134 0.0661 0.7763 -2.4984 -0.0984 -7.1539 -1.1704 0.6524 29.0566 0.0887 -0.0874 10.4524 -0.0000 0.0000 0.0000 -81.9945 0.4091 31.5707 13.1711 -21.5373 -2.5157 -0.0000 0.0000 -19.7160 23.2456 -8.0652 -3.4487 -7.1250 0.0000 -0.0000 -2.6092 21.2164 1.4896 -0.0000 0.0000 0.0000 88.1781 5.3424 3.2452 -11.6451 19.2702 -1.9836 0.0000 0.0000 40.2303 -24.1719 -21.9991 9.5438 7.1250 -0.0000 -0.0000 4.9186 -53.7987 -1.0660
1.3071 20.1875 4.4688 0.5447 0.1239 0.9899 0.0000 0.0000 0.0000 -20.2713 2.3885 -29.6004 1.0675 6.5684 18.4427 0.6799 0.0907 15.5526 0.3177 -3.6230 -10.0183 0.0000 0.0000 0.0000 14.9302 7.1438 -26.8613 -1.3054 -7.2379 20.4220 -0.2339 -5.6307 8.8847 -0.1793 -2.7274 7.5207 0.9573 0.0434 4.3207 2.5820 0.0776 3.2971 2.1116 0.0285 0.9621 -2.5201 -0.0533 -6.9925 -1.2685 0.7478 29.3619 0.0672 -0.0604 10.5357 -0.0000 -0.0000 0.0000 -81.7053 1.0077 32.0604 13.4316 -21.9163 -2.6122 -0.0000 0.0000 -20.0579 22.9715 -7.9407 -3.3514 -7.1250 0.0000 -0.0000 -2.8051 21.3693 1.5920 -0.0000 -0.0000 0.0000 88.1341 4.9732 3.3162 -11.6572 19.2885 -1.9876 0.0000 0.0000 40.0749 -24.1836 -21.9913 9.5457 7.1250 -0.0000 -0.0000 4.9040 -53.7926 -1.0621
1.3245 19.9344 4.7700 0.7307 0.0879 0.4419 0.0000 0.0000 0.0000 -20.6481 2.9663 -28.8433 0.9457 6.1934 17.3465 0.7460 0.0481 16.3097 0.3165 -3.6165 -10.0003 0.0000 0.0000 0.0000 14.5499 7.3125 -26.5608 -1.2627 -7.1230 20.0803 -0.2804 -5.5905 9.6160 -0.2042 -2.9093 8.0263 0.9824 -0.0082 3.8835 2.5864 -0.0003 3.2448 2.1045 -0.0102 1.1547 -2.5618 -0.0096 -6.8493 -1.3465 0.8403 29.6666 0.0558 -0.0348 10.6230 0.0000 -0.0000 0.0000 -81.4035 1.5788 32.5068 13.6964 -22.2991 -2.7118 -0.0000 0.0000 -20.3741 22.6926 -7.8114 -3.2528 -7.1250 0.0000 -0.0000 -3.0049 21.5267 1.6950 0.0000 -0.0000 0.0000 88.0809 4.6257 3.3834 -11.6801 19.3232 -1.9952 0.0000 0.0000 39.8919 -24.2170 -21.9825 9.5567 7.1250 -0.0000 -0.0000 4.8667 -53.7898 -1.0536
1.3415 19.6691 5.0713 0.9056 0.0686 -0.1472 0.0000 0.0000 0.0000 -20.9662 3.4665 -28.0080 0.8613 5.9179 16.5465 0.8197 0.1174 17.0747 0.3053 -3.5523 -9.8205 0.0000 0.0000 0.0000 14.2110 7.4408 -26.2172 -1.2416 -7.0655 19.9095 -0.3304 -5.5516 10.3579 -0.2312 -3.0949 8.5430 1.0119 -0.0624 3.4545 2.5956 -0.0817 3.1877 2.0990 -0.0506 1.3380 -2.6131 0.0298 -6.7276 -1.4164 0.9272 29.9699 0.0482 -0.0124 10.7145 -0.0000 -0.0000 0.0000 -81.0928 2.1049 32.9109 13.9467 -22.6585 -2.8075 -0.0000 0.0000 -20.6843 22.4458 -7.7213 -3.1768 -7.1250 0.0000 -0.0000 -3.1826 21.6392 1.7874 -0.0000 -0.0000 0.0000 88.0211 4.2978 3.4385 -11.7150 19.3758 -2.0067 0.0000 0.0000 39.7020 -24.2648 -21.9914 9.5813 7.1250 -0.0000 -0.0000 4.8200 -53.8084 -1.0457
1.3573 19.3910 5.3716 1.0647 0.0749 -0.7792 0.0000 0.0000 0.0000 -21.2067 3.8401 -27.0748 0.8098 5.7427 16.0397 0.8939 0.2955 17.7755 0.2933 -3.4825 -9.6251 0.0000 0.0000 0.0000 13.9174 7.5463 -25.8173 -1.2432 -7.0698 19.9224 -0.3803 -5.5288 11.0586 -0.2531 -3.2371 8.9395 1.0407 -0.1208 3.0554 2.6108 -0.1681 3.1280 2.0995 -0.0935 1.5022 -2.6699 0.0632 -6.6468 -1.4778 1.0061 30.2605 0.0439 0.0065 10.8100 0.0000 -0.0000 0.0000 -80.7853 2.5788 33.2203 14.1888 -23.0039 -2.9015 -0.0000 0.0000 -20.9511 22.2457 -7.6462 -3.1151 -7.1250 0.0000 -0.0000 -3.3271 21.7321 1.8618 0.0000 -0.0000 0.0000 87.9559 3.9993 3.4818 -11.7592 19.4425 -2.0214 0.0000 0.0000 39.5276 -24.3409 -21.9992 9.6178 7.1250 -0.0000 -0.0000 4.7435 -53.8316 -1.0317
1.3717 19.0988 5.6701 1.2017 0.1071 -1.4540 0.0000 0.0000 0.0000 -21.3545 4.0585 -26.0570 0.7910 5.6774 15.8512 0.9594 0.5156 18.3499 0.2884 -3.4538 -9.5449 0.0000 0.0000 0.0000 13.6731 7.6610 -25.3506 -1.2695 -7.1415 20.1352 -0.4253 -5.5263 11.6644 -0.2635 -3.3023 9.1215 1.0634 -0.1826 2.7049 2.6352 -0.2583 3.0636 2.1121 -0.1384 1.6348 -2.7419 0.0890 -6.6109 -1.5163 1.0718 30.5261 0.0490 0.0200 10.9052 -0.0000 0.0000 0.0000 -80.4775 2.9784 33.4556 14.4042 -23.3095 -2.9862 -0.0000 0.0000 -21.1957 22.1140 -7.5971 -3.0750 -7.1250 0.0000 -0.0000 -3.4223 21.7929 1.9105 -0.0000 0.0000 0.0000 87.8832 3.7303 3.5168 -11.8096 19.5185 -2.0382 0.0000 0.0000 39.3989 -24.4328 -22.0203 9.6668 7.1250 -0.0000 -0.0000 4.6547 -53.8717 -1.0169
1.3836 18.7920 5.9661 1.3124 0.1640 -2.1767 0.0000 0.0000 0.0000 -21.4043 4.1217 -25.0116 0.8107 5.7459 16.0489 1.0083 0.6589 18.7732 0.2878 -3.4498 -9.5338 0.0000 0.0000 0.0000 13.4815 7.8197 -24.8081 -1.3233 -7.2854 20.5637 -0.4615 -5.5543 12.1357 -0.2629 -3.2988 9.1117 1.0712 -0.2454 2.4278 2.6703 -0.3481 2.9956 2.1438 -0.1834 1.7229 -2.8151 0.1070 -6.6342 -1.5415 1.1245 30.7540 0.0580 0.0290 10.9981 0.0000 0.0000 0.0000 -80.1734 3.3023 33.5910 14.5966 -23.5811 -3.0627 -0.0000 0.0000 -21.3819 22.0477 -7.5574 -3.0490 -7.1250 0.0000 -0.0000 -3.4700 21.8394 1.9336 0.0000 0.0000 0.0000 87.8071 3.4972 3.5379 -11.8607 19.5955 -2.0553 0.0000 0.0000 39.3489 -24.5428 -22.0496 9.7273 7.1250 -0.0000 -0.0000 4.5497 -53.9243 -0.9997
1.3928 18.4698 6.2591 1.3916 0.2407 -2.9406 0.0000 0.0000 0.0000 -21.3964 4.1387 -24.0524 0.8798 5.9796 16.7253 0.9657 -0.0153 18.5863 0.2935 -3.4835 -9.6279 0.0000 0.0000 0.0000 13.3575 8.0146 -24.2147 -1.4090 -7.5079 21.2289 -0.4611 -5.3831 12.1174 -0.2106 -2.9549 8.1533 1.0655 -0.3046 2.2336 2.7153 -0.4308 2.9171 2.1930 -0.2253 1.7539 -2.9016 0.1126 -6.7051 -1.5357 1.1540 30.9282 0.0782 0.0298 11.0798 0.0000 0.0000 0.0000 -79.8616 3.5464 33.6683 14.7601 -23.8109 -3.1285 -0.0000 0.0000 -21.5313 22.0284 -7.4823 -3.0160 -7.1250 0.0000 -0.0000 -3.4832 21.9212 1.9345 0.0000 0.0000 0.0000 87.7307 3.2962 3.5356 -11.9053 19.6625 -2.0703 0.0000 0.0000 39.3956 -24.6480 -22.0884 9.7897 7.1250 -0.0000 -0.0000 4.4524 -53.9861 -0.9850
1.3988 18.1313 6.5481 1.4530 0.3340 -3.7446 0.0000 0.0000 0.0000 -21.3720 4.1819 -23.2987 1.0156 6.4116 17.9834 0.7936 -1.5244 17.4460 0.2923 -3.4768 -9.6091 0.0000 0.0000 0.0000 13.3154 8.1812 -23.6150 -1.5381 -7.8291 22.1963 -0.4252 -4.6406 11.6053 -0.1594 -2.5721 7.0897 1.0286 -0.3571 2.1406 2.7630 -0.5016 2.8227 2.2628 -0.2616 1.7119 -2.9861 0.1062 -6.8040 -1.5019 1.1571 31.0252 0.1056 0.0230 11.1372 -0.0000 -0.0000 0.0000 -79.5414 3.7230 33.6789 14.8973 -24.0028 -3.1840 -0.0000 0.0000 -21.6142 22.0638 -7.4311 -3.0008 -7.1250 0.0000 -0.0000 -3.4567 21.9741 1.9155 -0.0000 -0.0000 0.0000 87.6634 3.1144 3.5269 -11.9438 19.7204 -2.0833 0.0000 0.0000 39.5162 -24.7495 -22.1341 9.8535 7.1250 -0.0000 -0.0000 4.3610 -54.0545 -0.9720
1.4016 17.7839 6.8291 1.5011 0.4386 -4.5803 0.0000 0.0000 0.0000 -21.3348 4.2340 -22.7622 1.2401 7.0614 19.8975 0.4756 -3.6823 14.8985 0.2897 -3.4610 -9.5650 0.0000 0.0000 0.0000 13.3476 8.3102 -23.0648 -1.7299 -8.2793 23.5655 -0.3287 -3.2948 10.1981 -0.1155 -2.1910 6.0337 0.9575 -0.4019 2.1565 2.8097 -0.5587 2.7106 2.3514 -0.2915 1.5907 -3.0479 0.0914 -6.8903 -1.4592 1.1377 31.0026 0.1300 0.0117 11.1454 0.0000 0.0000 0.0000 -79.2156 3.8199 33.6435 14.9933 -24.1368 -3.2232 -0.0000 0.0000 -21.6445 22.1659 -7.4143 -3.0094 -7.1250 0.0000 -0.0000 -3.3820 21.9863 1.8730 0.0000 0.0000 0.0000 87.6161 2.9430 3.5469 -11.9872 19.7855 -2.0980 0.0000 0.0000 39.6498 -24.8342 -22.2210 9.9272 7.1250 -0.0000 -0.0000 4.2997 -54.1635 -0.9697
1.4020 17.4420 7.0944 1.5278 0.5473 -5.4425 0.0000 0.0000 0.0000 -21.2529 4.0750 -22.4537 1.5837 7.9390 22.5291 0.1049 -5.7581 10.7250 0.3199 -3.6356 -10.0537 0.0000 0.0000 0.0000 13.4943 8.1249 -22.7999 -2.0204 -8.9085 25.5094 -0.1956 -1.4198 7.9763 -0.1031 -2.0710 5.7019 0.8682 -0.4388 2.3224 2.8549 -0.6009 2.5759 2.4501 -0.3137 1.3621 -3.0945 0.0716 -6.9110 -1.3983 1.0961 30.8290 0.1559 -0.0030 11.0816 -0.0000 0.0000 0.0000 -78.9119 3.8271 33.5225 15.0392 -24.2007 -3.2420 -0.0000 0.0000 -21.5920 22.3384 -7.4469 -3.0485 -7.1250 0.0000 -0.0000 -3.2565 21.9411 1.8067 -0.0000 0.0000 0.0000 87.6036 2.8026 3.5584 -12.0237 19.8401 -2.1103 0.0000 0.0000 39.8001 -24.9236 -22.3629 10.0262 7.1250 -0.0000 -0.0000 4.2507 -54.3318 -0.9761
1.4021 17.1301 7.3305 1.5394 0.6861 -6.3134 0.0000 0.0000 0.0000 -21.1039 3.4533 -22.3970 2.0836 9.0381 25.9147 -0.1181 -6.7189 5.4966 0.4117 -4.1191 -11.4119 0.0000 0.0000 0.0000 13.6841 7.5527 -23.0807 -2.4597 -9.7643 28.2167 -0.0660 0.6658 5.1435 -0.1187 -2.2216 6.1184 0.7715 -0.4841 2.7020 2.8928 -0.6485 2.4235 2.5479 -0.3377 0.9963 -3.1006 0.0649 -6.8630 -1.3343 1.0582 30.5099 0.1763 -0.0083 10.9478 0.0000 -0.0000 0.0000 -78.6785 3.6525 33.2393 14.9915 -24.1342 -3.2225 -0.0000 0.0000 -21.4209 22.6109 -7.5219 -3.1207 -7.1250 0.0000 -0.0000 -3.0591 21.8439 1.7036 0.0000 -0.0000 0.0000 87.6471 2.7835 3.4840 -12.0301 19.8497 -2.1125 0.0000 0.0000 40.0388 -25.0487 -22.5680 10.1682 7.1250 -0.0000 -0.0000 4.1842 -54.5746 -0.9855
1.4035 16.8553 7.5332 1.4824 0.7704 -7.1777 0.0000 0.0000 0.0000 -20.8176 2.4598 -22.6991 2.7765 10.3241 30.0327 -0.1102 -6.1671 0.2617 0.4681 -4.3883 -12.1717 0.0000 0.0000 0.0000 13.8876 7.0142 -23.9431 -3.1008 -10.8565 31.7974 0.0144 2.3748 1.9906 -0.1508 -2.5025 6.8966 0.7621 -0.5041 3.2992 2.9327 -0.6566 2.3059 2.6010 -0.3404 0.5425 -3.0360 0.0676 -6.9165 -1.3285 1.0430 30.1903 0.1659 -0.0025 10.8354 -0.0000 0.0000 0.0000 -78.5654 3.1285 32.7172 14.7956 -23.8606 -3.1428 -0.0000 0.0000 -21.0590 23.0337 -7.6061 -3.2210 -7.1250 0.0000 -0.0000 -2.7527 21.7271 1.5399 -0.0000 0.0000 0.0000 87.7628 3.0561 3.1723 -11.9629 19.7490 -2.0897 0.0000 0.0000 40.4768 -25.2866 -22.8981 10.4154 7.1250 -0.0000 -0.0000 4.0388 -54.9736 -0.9904
1.4065 16.6046 7.7065 1.3803 0.7357 -8.0072 0.0000 0.0000 0.0000 -20.4171 1.2061 -23.3971 3.6676 11.7045 34.6945 0.0297 -4.6721 -4.2435 0.4430 -4.2705 -11.8390 0.0000 0.0000 0.0000 14.0150 6.9096 -25.2849 -3.9601 -12.1071 36.1118 0.0222 3.4200 -1.0662 -0.1852 -2.7720 7.6447 0.8585 -0.4688 4.0564 2.9747 -0.5853 2.2713 2.5959 -0.3025 0.0807 -2.8649 0.0769 -7.1270 -1.4487 1.0620 29.8839 0.0956 0.0152 10.7609 -0.0000 -0.0000 0.0000 -78.6225 2.1238 31.8722 14.4046 -23.3102 -2.9864 -0.0000 0.0000 -20.4205 23.5850 -7.6526 -3.3273 -7.1250 0.0000 -0.0000 -2.3526 21.6418 1.3202 -0.0000 -0.0000 0.0000 87.9253 3.7356 2.4880 -11.7909 19.4903 -2.0320 0.0000 0.0000 41.2249 -25.6541 -23.3853 10.7928 7.1250 -0.0000 -0.0000 3.8067 -55.5675 -0.9883
1.4100 16.3545 7.8614 1.3165 0.5362 -8.8871 0.0000 0.0000 0.0000 -19.9887 -0.0070 -24.3639 4.7245 13.0667 39.6186 0.1841 -3.0330 -7.6261 0.3706 -3.9101 -10.8240 0.0000 0.0000 0.0000 13.9761 7.5231 -26.7593 -5.0100 -13.3950 40.8659 -0.0250 3.7608 -3.6237 -0.2206 -3.0234 8.3440 0.9725 -0.3597 4.9659 3.0175 -0.4136 2.3962 2.5765 -0.2153 -0.3053 -2.6347 0.0957 -7.5392 -1.6701 1.1214 29.6092 -0.0162 0.0445 10.7401 0.0000 0.0000 0.0000 -78.8943 0.6178 30.6013 13.8266 -22.4862 -2.7614 -0.0000 0.0000 -19.4114 24.2711 -7.6650 -3.4418 -7.1250 0.0000 -0.0000 -1.8539 21.5834 1.0425 0.0000 0.0000 0.0000 88.0853 4.8427 1.4328 -11.5281 19.0932 -1.9452 0.0000 0.0000 42.3261 -26.1416 -23.9857 11.2831 7.1250 -0.0000 -0.0000 3.4821 -56.3102 -0.9666
